# xmcd CD database file generated by OrangeCD 5.2
#
# Track frame offsets:
#	150
#	11316
#	25521
#	37798
#	50868
#	63105
#	74132
#	84081
#	96407
#	115950
#
# Disc length: 1726 seconds
#
# Revision: 0
# Processed by: cddbd v1.5.1PL2 Copyright (c) Steve Scherf et al.
# Submitted via: OrangeCD 5.2
#
DISCID=7706bc0a
DTITLE=John Lee Hooker - John Lee Hooker
DYEAR=2006
DGENRE=Blues
TTITLE0=Boom Boom
TTITLE1=Boogie Chillen'
TTITLE2=I'm In The Mood
TTITLE3=Hobo Blues
TTITLE4=Crawlin' Kingsnake
TTITLE5=No Shoes
TTITLE6=Dimples
TTITLE7=Burning Hell
TTITLE8=House Rent Boogie
TTITLE9=Too Much Boogie
EXTD=
EXTT0=
EXTT1=
EXTT2=
EXTT3=
EXTT4=
EXTT5=
EXTT6=
EXTT7=
EXTT8=
EXTT9=
PLAYORDER=
